<svg id="Layer_1" enable-background="new 0 0 512 512" height="512" viewBox="0 0 512 512" width="512" xmlns="http://www.w3.org/2000/svg"><g><path d="m484.5.038h-397.571c-15.164 0-27.5 12.337-27.5 27.5v78.987h-31.929c-15.163 0-27.5 12.337-27.5 27.5v15.013c0 9.697 15 9.697 15 0v-15.013c0-6.893 5.607-12.5 12.5-12.5h31.94c.421 14.799 12.589 26.708 27.488 26.708h269.072l37.027 36.948c4.76 4.75 12.798 1.15 12.798-5.309v-31.64h31.745v78.987c0 6.893-5.607 12.5-12.5 12.5h-272.173c-1.986 0-3.892.788-5.298 2.191l-26.426 26.369v-21.059c0-4.143-3.357-7.5-7.5-7.5h-86.173c-6.893 0-12.5-5.607-12.5-12.5v-36.85c0-9.697-15-9.697-15 0v36.85c0 15.163 12.337 27.5 27.5 27.5h78.674v31.64c0 6.458 8.038 10.059 12.798 5.309l37.027-36.948h269.072c15.164 0 27.5-12.337 27.5-27.5v-78.987h31.929c15.163 0 27.5-12.336 27.5-27.5v-93.196c0-15.163-12.337-27.5-27.5-27.5zm12.5 120.695c0 6.893-5.607 12.5-12.5 12.5h-86.174c-4.143 0-7.5 3.357-7.5 7.5v21.061l-26.426-26.37c-1.406-1.403-3.312-2.191-5.298-2.191h-272.173c-6.893 0-12.5-5.607-12.5-12.5v-93.195c0-6.893 5.607-12.5 12.5-12.5h397.571c6.893 0 12.5 5.607 12.5 12.5z"/><path d="m484.5 324.702h-15.516c-4.143 0-7.5 3.357-7.5 7.5s3.357 7.5 7.5 7.5h15.516c6.893 0 12.5 5.607 12.5 12.5v93.195c0 6.893-5.607 12.5-12.5 12.5h-178.174c-2.839 0-5.434 1.603-6.705 4.141l-12.907 25.758-12.906-25.758c-1.271-2.538-3.866-4.141-6.705-4.141h-180.175c-6.893 0-12.5-5.607-12.5-12.5v-93.195c0-6.893 5.607-12.5 12.5-12.5h342.07c4.143 0 7.5-3.357 7.5-7.5s-3.357-7.5-7.5-7.5h-342.07c-15.164 0-27.5 12.337-27.5 27.5v93.195c0 15.164 12.336 27.5 27.5 27.5h175.544l17.537 35c2.715 5.42 10.694 5.42 13.41.001l17.538-35.001h173.543c15.164 0 27.5-12.336 27.5-27.5v-93.195c0-15.163-12.336-27.5-27.5-27.5z"/><path d="m157.289 402.401c0 12.94 10.528 23.469 23.47 23.469 31.134-1.29 31.125-45.653 0-46.938-12.942 0-23.47 10.529-23.47 23.469zm31.939 0c0 4.67-3.799 8.469-8.469 8.469-11.221-.426-11.218-16.513 0-16.938 4.67 0 8.469 3.799 8.469 8.469z"/><path d="m227.26 402.401c0 12.94 10.528 23.469 23.469 23.469 31.136-1.289 31.127-45.653 0-46.938-12.941 0-23.469 10.529-23.469 23.469zm31.938 0c0 4.67-3.8 8.469-8.47 8.469-11.22-.425-11.217-16.514 0-16.938 4.67 0 8.47 3.799 8.47 8.469z"/><path d="m297.23 402.401c0 12.94 10.528 23.469 23.469 23.469 31.134-1.29 31.125-45.653 0-46.938-12.94 0-23.469 10.529-23.469 23.469zm31.938 0c0 4.67-3.799 8.469-8.469 8.469-11.22-.425-11.216-16.514 0-16.938 4.67 0 8.469 3.799 8.469 8.469z"/><path d="m367.201 402.401c0 12.94 10.528 23.469 23.469 23.469 31.134-1.29 31.125-45.653 0-46.938-12.941 0-23.469 10.529-23.469 23.469zm31.938 0c0 4.67-3.799 8.469-8.469 8.469-11.22-.425-11.216-16.514 0-16.938 4.67 0 8.469 3.799 8.469 8.469z"/><path d="m451 45.97h-234.714c-9.931.344-9.923 14.66 0 15h234.714c9.931-.343 9.923-14.66 0-15z"/><path d="m347 83.731h-130.714c-9.931.344-9.923 14.66 0 15h130.714c9.931-.343 9.923-14.66 0-15z"/><path d="m177.933 57.652-18.511-2.688-8.277-16.759c-2.701-5.469-10.748-5.469-13.449 0l-8.276 16.759-18.511 2.688c-6.04.877-8.526 8.536-4.155 12.794l13.391 13.044-3.16 18.416c-1.033 6.015 5.478 10.743 10.88 7.908l16.557-8.698 16.558 8.698c5.375 2.822 11.914-1.89 10.88-7.908l-3.16-18.416 13.391-13.044c4.368-4.258 1.882-11.917-4.158-12.794zm-22.529 17.846c-3.102 3.022-2.204 10.255-.9 13.972-6.285-5.043-13.882-5.044-20.167 0 2.49-7.469.182-14.581-6.225-19.158 7.878.061 13.929-4.337 16.308-11.848 2.379 7.51 8.43 11.908 16.309 11.848z"/></g></svg>